<?xml version="1.0" standalone="no"?>
<!DOCTYPE svg PUBLIC "-//W3C//DTD SVG 20010904//EN"
 "http://www.w3.org/TR/2001/REC-SVG-20010904/DTD/svg10.dtd">
<svg version="1.0" xmlns="http://www.w3.org/2000/svg"
 width="820.000000pt" height="820.000000pt" viewBox="0 0 820.000000 820.000000"
 preserveAspectRatio="xMidYMid meet">
<metadata>
Created by potrace 1.16, written by Peter Selinger 2001-2019
</metadata>
<g transform="translate(0.000000,820.000000) scale(0.100000,-0.100000)"
fill="#FFFFFF" stroke="none">
<path d="M2930 8194 c-355 -30 -620 -87 -896 -190 -689 -256 -1270 -752 -1633
-1391 -497 -876 -532 -1953 -95 -2872 482 -1011 1458 -1671 2609 -1762 473
-37 1014 63 1485 276 165 74 258 126 463 258 l109 70 91 -91 92 -92 -54 -54
-54 -55 964 -958 c1230 -1223 1240 -1233 1369 -1296 64 -32 66 -32 215 -31
137 0 155 3 211 26 143 59 257 166 325 303 66 134 83 265 54 406 -31 145 -46
166 -366 494 -457 469 -1905 1915 -1917 1915 -6 0 -35 -22 -64 -49 l-53 -50
-86 86 -86 85 93 147 c262 407 411 801 486 1281 19 126 22 183 22 440 0 257
-3 314 -22 440 -89 565 -304 1062 -652 1500 -107 135 -355 383 -489 489 -329
261 -712 454 -1120 567 -142 39 -358 79 -510 94 -115 11 -421 20 -491 14z
m457 -969 c336 -44 625 -152 902 -335 545 -362 896 -931 962 -1559 15 -146 6
-493 -16 -616 -67 -374 -222 -713 -451 -985 -75 -90 -254 -267 -344 -340 -411
-336 -958 -499 -1515 -451 -526 46 -955 245 -1332 619 -326 323 -525 702 -609
1157 -25 139 -31 488 -10 653 48 374 185 709 414 1012 81 105 280 309 393 399
288 233 667 395 1039 446 135 18 424 18 567 0z"/>
<path d="M2948 6493 c-25 -6 -36 -52 -43 -166 -9 -151 -4 -141 -98 -188 -228
-115 -321 -203 -393 -374 -27 -65 -29 -79 -29 -195 0 -105 4 -137 25 -199 58
-180 205 -298 550 -441 287 -119 372 -186 372 -296 0 -106 -62 -178 -182 -215
-63 -19 -87 -21 -184 -16 -125 7 -203 25 -361 86 -92 36 -110 40 -122 28 -30
-30 -93 -254 -93 -331 0 -37 15 -54 76 -85 47 -23 208 -70 332 -97 46 -9 90
-23 99 -29 12 -9 18 -38 23 -126 9 -174 18 -182 193 -182 107 0 120 2 139 21
25 24 36 88 37 209 1 106 17 126 141 177 213 89 356 255 395 461 19 98 19 147
-1 242 -25 124 -76 215 -174 313 -92 92 -143 124 -325 204 -234 102 -351 165
-393 210 -86 93 -60 217 55 268 100 44 308 32 494 -28 58 -19 113 -34 123 -34
26 0 52 53 85 174 41 146 40 168 -3 201 -41 31 -176 78 -271 94 -132 22 -138
28 -155 176 -14 115 -17 124 -47 136 -24 9 -232 11 -265 2z"/>
</g>
</svg>
